inDegrees=yes
name=ik_S54_A13_T02
DataType=double
version=3
OpenSimVersion=4.3-2021-08-27-4bc7ad9
endheader
time	pelvis_tilt	pelvis_list	pelvis_rotation	pelvis_tx	pelvis_ty	pelvis_tz	hip_flexion_r	hip_adduction_r	hip_rotation_r	knee_angle_r	knee_angle_r_beta	ankle_angle_r	subtalar_angle_r	mtp_angle_r	hip_flexion_l	hip_adduction_l	hip_rotation_l	knee_angle_l	knee_angle_l_beta	ankle_angle_l	subtalar_angle_l	mtp_angle_l	lumbar_extension	lumbar_bending	lumbar_rotation	arm_flex_r	arm_add_r	arm_rot_r	elbow_flex_r	pro_sup_r	wrist_flex_r	wrist_dev_r	arm_flex_l	arm_add_l	arm_rot_l	elbow_flex_l	pro_sup_l	wrist_flex_l	wrist_dev_l
0	0	0	0	0	0.9399999999999999	0	0	0	0	0	0	0	0	0	0	0	0	0	0	0	0	0	0	0	0	0	0	0	0	89.99999999963507	0	0	0	0	0	0	89.99999999869995	0	0
0.02	-1.04558509297426	0.6790022495151424	19.10973655556717	0	0.9399999999999999	0	3.13420712693546	-1.462895746256671	-1.055634181330246	4.90279709781484	0.08556995191409145	0	0	0	3.13420712693546	-1.462895746256671	-1.055634181330246	4.90279709781484	0.08556995191409145	0	0	0	0.2235883407753859	-0.789947992535203	3.860116113812204	14.43171932597711	1.920087946325765	-1.440860419640142	4.497056076869802	152.4343145902382	0	0	11.5736447044766	-5.363338191798363	4.394040790164934	20.82310615476148	154.754127468965	0	0
0.04	-1.027145834299722	0.6448539187236469	19.14279290549106	0	0.9399999999999999	0	3.899188566752917	-1.783241707256813	-1.327691536545263	5.499693801230986	0.09598776468300328	0	0	0	3.899188566752917	-1.783241707256813	-1.327691536545263	5.499693801230986	0.09598776468300328	0	0	0	0.2147633815597274	-0.8038654342228988	3.831630418937477	14.41859235431346	1.969527513662895	-1.452395498625724	4.518502867690438	152.5287108794594	0	0	11.57832761738738	-5.400515160772554	4.418914253542914	20.86789790758651	154.7011976699855	0	0
0.06	-1.029508027726473	0.6152341237068443	19.17645862312131	0	0.9399999999999999	0	3.913911897370419	-1.790779383444603	-1.33273058718785	5.519353828569201	0.09633089689108722	0	0	0	3.913911897370419	-1.790779383444603	-1.33273058718785	5.519353828569201	0.09633089689108722	0	0	0	0.2025769559198289	-0.8307235922570941	3.838328011309148	14.44219895795726	1.960087157932774	-1.451101797235278	4.530150359048389	152.5759072293942	0	0	11.65470318533968	-5.386850596314201	4.378223215061098	20.7919352442139	154.7912134051921	0	0
0.08	-1.036090418183065	0.5878864989390936	19.20396376548143	0	0.9399999999999999	0	3.917693119157669	-1.7926908813986	-1.334020577858763	5.524408934305776	0.09641912513022691	0	0	0	3.917693119157669	-1.7926908813986	-1.334020577858763	5.524408934305776	0.09641912513022691	0	0	0	0.1872941651332517	-0.8542821818493327	3.841527738893026	14.43301377875229	1.932240076595993	-1.376336976685503	4.533107947297369	152.5765067039541	0	0	11.68583834047169	-5.382240556443	4.443231233861368	20.78898869029697	154.7868789563052	0	0
0.1	-1.038463440115744	0.5592317359046447	19.29261705759721	0	0.9399999999999999	0	4.933648013655431	-2.228739927814482	-1.691834162150993	6.475287778322742	0.1130150917458805	0	0	0	4.933648013655431	-2.228739927814482	-1.691834162150993	6.475287778322742	0.1130150917458805	0	0	0	0.1579312298999902	-0.842912789698733	3.799183641120646	14.47334495702788	1.931154684993623	-1.4124147897374	4.55790330054286	152.614762610331	0	0	11.74759804538127	-5.350152528023852	4.576893696512535	20.78723068434748	154.6407685444713	0	0
0.12	-1.03354908610133	0.550755800685098	19.32714068439305	0	0.9399999999999999	0	4.937899868110308	-2.230853149582219	-1.693283804196534	6.480843956091674	0.1131120653417745	-1.906322262563771e-35	0	0	4.937899868110308	-2.230853149582219	-1.693283804196534	6.480843956091674	0.1131120653417745	-1.906322262563771e-35	0	0	0.1597131968324635	-0.8524437932799027	3.798819121390197	14.43133756991623	1.902140006994646	-1.317932834131119	4.550420790604082	152.604140723426	0	0	11.74103958029725	-5.342403887157919	4.662293111540388	20.7831355795811	154.627023315878	0	0
0.14	-0.9896747905360451	0.4716247194229179	19.37535620906808	0	0.9399999999999999	0	4.949744628176029	-2.236784181119881	-1.697331758144752	6.496288671734294	0.1133816264817725	0	0	0	4.949744628176029	-2.236784181119881	-1.697331758144752	6.496288671734294	0.1133816264817725	0	0	0	0.1746541251999719	-0.9412701731469867	3.817692072282846	14.40834648437932	2.053739477653981	-1.410957963130828	4.536310282494595	152.6143148422238	0	0	11.72698386596612	-5.490428584512993	4.779628996000173	20.78599717025051	154.5954140582824	0	0
0.16	-0.9480777418429518	0.3897969108603382	19.43500071129096	0	0.9399999999999999	0	4.959802692489688	-2.241849717055996	-1.700775340239744	6.509379062375119	0.1136100968988272	0	0	0	4.959802692489688	-2.241849717055996	-1.700775340239744	6.509379062375119	0.1136100968988272	0	0	0	0.1865206891463896	-1.031972736847593	3.833193687884295	14.36575812062278	2.208312639193751	-1.439715576609607	4.538048477215549	152.6138472218116	0	0	11.71520300837783	-5.640440560796677	4.846117910984332	20.79972383114738	154.6113706670657	0	0
0.18	-0.9218763153739269	0.3425976929077019	19.48438411965154	0	0.9399999999999999	0	4.968336265661238	-2.246144948952894	-1.703696682996629	6.520481552857595	0.1138038719129177	0	0	0	4.968336265661238	-2.246144948952894	-1.703696682996629	6.520481552857595	0.1138038719129177	0	0	0	0.195315591265814	-1.084941101234815	3.847842096652088	14.35887917750265	2.28991908066136	-1.531796825609128	4.519748216339007	152.6567788884278	0	0	11.72033347502707	-5.722507401002965	4.820577768768459	20.80802062027961	154.6423334613537	0	0
0.2	-0.9032554953032813	0.2978671931865036	19.55002987865221	0	0.9399999999999999	0	4.978261419666087	-2.251151232773043	-1.707096877795399	6.533381917220717	0.1140290257457611	0	0	0	4.978261419666087	-2.251151232773043	-1.707096877795399	6.533381917220717	0.1140290257457611	0	0	0	0.197682225579234	-1.133005732375483	3.867150574146017	14.3125593401025	2.382061621820793	-1.475781539628544	4.528232156574718	152.6148615074881	0	0	11.73093305781878	-5.791995826384227	4.798750396865753	20.80330965819089	154.6907632566678	0	0
0.22	-0.9013712014191216	0.2873570401337627	19.58451157197202	0	0.9399999999999999	0	4.983449555135254	-2.253757289613514	-1.708872109665698	6.540128982289763	0.1141467842460623	0	0	0	4.983449555135254	-2.253757289613514	-1.708872109665698	6.540128982289763	0.1141467842460623	0	0	0	0.1958489465662255	-1.143398340492789	3.87233221378393	14.31289147353566	2.388498436264098	-1.511927114727426	4.515845043697367	152.6478021301409	0	0	11.71833212791437	-5.795233762455879	4.704105360546414	20.79765256420867	154.6951102715107	0	0
0.24	-0.8884095425285852	0.2749926088480713	19.65306931699718	0	0.9399999999999999	0	4.989787175040599	-2.256946198082276	-1.711041901931596	6.548365068293011	0.1142905310642964	0	0	0	4.989787175040599	-2.256946198082276	-1.711041901931596	6.548365068293011	0.1142905310642964	0	0	0	0.2036960535270021	-1.159119850683835	3.90044423672718	14.27244402530959	2.433219451366687	-1.567738654633106	4.506886313579495	152.6757799821436	0	0	11.70269348503296	-5.797017375708653	4.67050416403502	20.78099061211094	154.7043001806858	0	0
0.26	-0.8872525994979804	0.2603559186370891	19.71361589213508	0	0.9399999999999999	0	4.994391799374135	-2.259256152760467	-1.712616998658377	6.55435149481891	0.114395013917602	0	0	0	4.994391799374135	-2.259256152760467	-1.712616998658377	6.55435149481891	0.114395013917602	0	0	0	0.1997395220983682	-1.173123867114607	3.913176328117471	14.26754856466992	2.455388136599446	-1.627273502603841	4.51764059491813	152.6851620120892	0	0	11.6602443207227	-5.798741921074653	4.53295603362215	20.78208814262049	154.7242438664037	0	0
0.28	-0.8929456189269257	0.219390008947099	19.77295853952963	0	0.9399999999999999	0	5.841454922051372	-2.622699043576141	-2.004800668670385	7.392207507437109	0.1290183599954208	0	0	0	5.841454922051372	-2.622699043576141	-2.004800668670385	7.392207507437109	0.1290183599954208	0	0	0	0.2125833687599663	-1.185371415131608	3.934866399940287	14.24305559338747	2.511757045841835	-1.689771733050176	4.556019724228074	152.7066049027253	0	0	11.67199099928378	-5.822141275744743	4.609857770414711	20.8157094635691	154.6478237205736	0	0
